<?xml version="1.0" encoding="UTF-8"?>
<svg width="512pt" height="512pt" version="1.1" viewBox="0 0 512 512" xmlns="http://www.w3.org/2000/svg">
 <g fill="#5f5545">
  <path d="m291.43 57.273c0-6.9258-5.3281-12.254-11.723-12.785h-3.1953c-8.5234 0-31.434 1.0625-58.074 9.0547-13.32 3.7305-27.703 9.5898-41.023 18.113-13.852 8.5234-26.641 19.711-37.293 34.629-1.5977 2.1328-2.1328 4.7969-2.1328 6.9258 0 3.7305 1.5977 7.457 4.7969 9.5898 2.1328 1.5977 4.7969 2.1328 6.9258 2.1328 3.7305 0 7.457-1.5977 9.5898-4.7969 8.5234-11.723 19.18-20.777 30.367-28.238 17.051-10.656 36.23-16.516 52.211-19.711 15.984-3.1953 29.305-3.7305 34.629-3.7305h2.1328 1.0625c6.3984 0.53906 11.727-4.7891 11.727-11.184z"/>
  <path d="m115.61 96.168c2.1328 1.5977 4.7969 2.6641 7.457 2.6641 3.7305 0 7.457-1.5977 9.5898-4.7969 21.844-29.305 51.68-44.754 79.383-53.277 27.172-8.5234 52.211-9.5898 62.336-9.5898h3.7305 1.5977c6.3945 0 11.723-4.7969 12.254-11.188v-0.53125c0-6.3945-4.7969-11.723-11.188-12.254h-6.3945c-11.723 0-38.895 1.0664-69.793 10.656-30.902 9.5898-65.531 27.703-91.637 61.801-1.5977 2.1328-2.6641 4.7969-2.6641 7.457 0.53125 2.6641 2.1328 6.3945 5.3281 9.0586z"/>
  <path d="m466.71 264.52c0-9.0586-0.53125-14.918-1.0664-15.449-1.0664-5.8594-5.8594-10.121-11.723-10.121h-1.5977c-5.8594 1.0664-10.121 5.8594-10.121 11.723v1.0664 0.53125 0.53125s0.53125 4.2617 0.53125 11.723c0 11.188-1.5977 28.77-7.9922 49.016-6.9258 20.246-18.648 43.156-39.957 64.465-2.1328 2.1328-3.7305 5.3281-3.7305 8.5234s1.0664 6.3945 3.7305 8.5234c2.1328 2.1328 5.3281 3.7305 8.5234 3.7305s6.3945-1.0664 8.5234-3.7305c24.508-24.508 38.359-50.613 45.82-74.055 7.4609-22.91 9.0586-43.156 9.0586-56.477z"/>
  <path d="m394.26 307.68c0-10.121-3.7305-20.246-11.188-27.703l-2.6641-2.6641c-3.7305-3.7305-7.9922-6.3945-12.785-8.5234l5.8594-5.8594c8.5234-8.5234 12.785-19.711 13.32-30.902v-0.53125c0-11.188-4.2617-22.91-13.32-31.434-3.7305-3.7305-7.9922-6.3945-12.785-8.5234 5.8594-6.9258 9.0586-15.984 9.0586-24.508v-0.53125-0.53125c0-9.5898-3.7305-19.711-11.188-27.172l-6.9336-6.9336c-7.457-7.457-17.582-11.188-27.703-11.188-8.5234 0-16.516 2.6641-23.441 7.9922-2.1328-4.7969-4.7969-9.0586-8.5234-12.785-7.457-7.457-17.582-11.188-27.703-11.188-10.121 0-20.246 3.7305-27.703 11.188l-94.84 94.297c2.1328-6.9258 3.7305-13.32 3.7305-20.246 0-9.0586-2.6641-18.113-7.9922-26.105s-13.32-13.852-22.91-18.113h-0.53125l-1.0664-0.53125c-2.1328-0.53125-4.2617-1.0664-6.9258-1.0664-7.457 0-14.918 4.2617-18.648 11.188-1.0664 1.5977-15.449 27.172-31.965 59.137-8.5234 16.516-17.582 34.629-25.574 52.211-7.9922 17.582-14.918 34.098-19.18 48.484-0.53125 1.0664-5.3281 16.516-5.3281 39.426 0 14.387 2.1328 32.5 9.0586 51.148 6.9258 18.648 18.113 38.895 36.762 57.008 15.984 15.984 34.098 27.172 52.211 34.098 18.113 6.9258 36.23 9.5898 53.277 9.5898 18.113 0 35.164-3.1953 49.016-7.9922 13.852-4.7969 25.574-11.188 33.031-18.648l143.85-143.85c7.457-8.5234 11.188-18.113 11.723-28.234zm-282.91 165.7c-14.918-5.8594-29.836-14.387-43.688-28.238-15.984-15.984-25.574-32.5-31.434-48.484-5.8594-15.449-7.457-30.367-7.457-43.156 0-9.5898 1.0664-18.113 2.1328-23.441 0.53125-2.6641 1.0664-4.7969 1.5977-6.3945 0-0.53125 0.53125-1.0664 0.53125-1.5977v-0.53125c3.7305-12.254 10.121-28.238 18.113-45.285 11.723-25.574 25.574-52.746 36.762-74.055 5.8594-10.656 10.656-19.18 13.852-25.574 1.5977-3.1953 3.1953-5.3281 4.2617-7.457 0-0.53125 0.53125-0.53125 0.53125-1.0664 4.7969 2.6641 7.9922 5.3281 10.121 8.5234 2.6641 3.7305 3.7305 7.457 3.7305 12.254 0 5.8594-1.5977 12.785-5.8594 20.777l-25.574 51.68c-1.0664 1.5977-1.0664 3.7305-1.0664 5.3281 0 3.7305 1.5977 7.457 5.3281 10.121 2.1328 1.5977 4.7969 2.1328 6.9258 2.1328 3.1953 0 6.3945-1.0664 8.5234-3.7305l143.85-143.85c3.1953-2.6641 6.3945-4.2617 10.656-4.2617 3.7305 0 7.457 1.5977 10.656 4.2617 2.6641 2.6641 4.2617 6.3945 4.2617 10.656 0 3.7305-1.5977 7.457-4.2617 10.656l-107.09 108.16c-2.1328 2.1328-3.7305 5.3281-3.7305 8.5234 0 3.1953 1.0664 6.3945 3.7305 8.5234 2.1328 2.1328 5.3281 3.7305 8.5234 3.7305s6.3945-1.0664 8.5234-3.7305l129.46-129.46c3.1953-2.6641 6.3945-4.2617 10.656-4.2617 3.7305 0 7.457 1.5977 10.656 4.2617l6.9258 6.9258c2.6641 3.1953 4.2617 6.3945 4.2617 10.656 0 3.7305-1.5977 7.457-4.2617 10.656l-22.91 22.91-46.879 46.352-59.672 59.668c-2.1328 2.1328-3.7305 5.3281-3.7305 8.5234 0 3.1953 1.0664 6.3945 3.7305 8.5234 2.1328 2.1328 5.3281 3.7305 8.5234 3.7305 3.1953 0 6.3945-1.0664 8.5234-3.7305l106.02-106.02c3.1953-2.6641 6.3945-4.2617 10.656-4.2617 3.7305 0 7.457 1.5977 10.656 4.2617 4.2617 4.2617 5.8594 9.0586 5.8594 14.387s-2.1328 10.656-5.8594 14.387l-31.434 31.969-77.785 77.25-8.5234 8.5234c-2.1328 2.1328-3.7305 5.3281-3.7305 8.5234s1.0664 6.3945 3.7305 8.5234c2.1328 2.1328 5.3281 3.7305 8.5234 3.7305 3.1953 0 6.3945-1.0664 8.5234-3.7305l85.777-85.777c3.1953-2.6641 6.3945-4.2617 10.656-4.2617 3.7305 0 7.457 1.5977 10.656 4.2617l2.6641 2.6641c2.6641 3.1953 4.2617 6.3945 4.2617 10.656 0 3.7305-1.5977 7.457-4.2617 10.656l-143.85 143.85c-1.5977 1.5977-4.7969 4.2617-9.0586 6.3945s-9.0586 4.7969-14.918 6.3945c-11.723 3.7305-26.105 6.3945-41.559 6.3945-14.383 0-29.832-2.1328-44.75-7.9922z"/>
  <path d="m506.14 245.34c-1.0664-5.8594-5.8594-10.121-11.723-10.121h-1.5977c-5.8594 1.0664-10.121 5.8594-10.121 11.723v1.0664 1.0664s0.53125 4.2617 0.53125 11.723c0 12.254-1.5977 33.031-10.656 58.074-9.0586 25.035-25.574 53.805-54.344 83.105-2.1328 2.1328-3.7305 5.3281-3.7305 8.5234 0 3.1953 1.0664 6.3945 3.7305 8.5234 2.1328 2.1328 5.3281 3.7305 8.5234 3.7305 3.1953 0 6.3945-1.0664 8.5234-3.7305 31.434-31.434 49.547-63.934 59.672-92.172 10.121-28.238 11.723-51.68 11.723-66.066 0-9.0508-0.53125-14.379-0.53125-15.445z"/>
 </g>
</svg>
