<?xml version="1.0" encoding="UTF-8"?>
<svg width="512pt" height="512pt" version="1.1" viewBox="0 0 512 512" xmlns="http://www.w3.org/2000/svg">
 <path d="m324.1 436.53-126.89-102.5h-72.41c-22.586 0-40.961-18.371-40.961-40.961v-176.64c0-22.578 18.375-40.961 40.961-40.961h262.4c22.586 0 40.961 18.379 40.961 40.961v176.64c0 22.59-18.375 40.961-40.961 40.961h-62.559zm-199.3-330.34c-5.6484 0-10.238 4.5977-10.238 10.238v176.64c0 5.6523 4.5938 10.238 10.238 10.238h83.273l85.648 69.191 0.36328-69.191h93.121c5.6484 0 10.238-4.5859 10.238-10.238v-176.64c0-5.6406-4.5938-10.238-10.238-10.238z" fill="#5f5545"/>
</svg>
