<?xml version="1.0" encoding="UTF-8"?>
<svg width="512pt" height="512pt" version="1.1" viewBox="0 0 512 512" xmlns="http://www.w3.org/2000/svg">
 <g fill="#5f5545">
  <path d="m136 441.47c-7.0781 2.6016-12.523 8.3828-14.703 15.605-2.1758 7.2227-0.82812 15.047 3.6328 21.125 4.4648 6.082 11.527 9.7109 19.07 9.7969h224c7.543-0.085938 14.605-3.7148 19.07-9.7969 4.4609-6.0781 5.8086-13.902 3.6328-21.125-2.1797-7.2227-7.625-13.004-14.703-15.605v-194.95c6.207-2.2539 11.211-6.9648 13.828-13.027s2.6172-12.938 0-19-7.6211-10.773-13.828-13.027c1.3984-22.383-4.0273-44.664-15.559-63.898-11.535-19.238-28.633-34.52-49.035-43.832-12.781-5.1797-28.801-19.34-39.773-27.68 4.9609-4.2773 7.9531-10.406 8.2734-16.949 0.32422-6.5469-2.0508-12.938-6.5703-17.684-4.5156-4.7461-10.785-7.4297-17.336-7.4297s-12.82 2.6836-17.336 7.4297c-4.5195 4.7461-6.8945 11.137-6.5703 17.684 0.32031 6.543 3.3125 12.672 8.2734 16.949-11.086 8.4336-26.93 22.461-39.773 27.68-20.402 9.3125-37.5 24.594-49.035 43.832-11.531 19.234-16.957 41.516-15.559 63.898-6.207 2.2539-11.211 6.9648-13.828 13.027s-2.6172 12.938 0 19 7.6211 10.773 13.828 13.027zm72-1.4727v-85.43c0-35.555 20.07-66.43 48-74.305 27.93 7.875 48 38.75 48 74.305v85.43zm-56 0v-156.77c23.68 10.992 40 39.258 40 71.344v85.43zm168-85.43c0-32.086 16.32-60.344 40-71.336v156.77h-40zm40-88.539c-22.121 8.4336-39.59 25.914-48.004 48.043-10.879-25.383-31.91-47.43-57.875-49.848h-0.003906c-24.945 7.0469-45.039 25.555-54.109 49.84-8.4141-22.129-25.883-39.605-48.008-48.035v-18.031h208zm8 205.97h-224c-4.418 0-8-3.582-8-8s3.582-8 8-8h224c4.418 0 8 3.582 8 8s-3.582 8-8 8zm-112-432c4.418 0.003906 7.9961 3.5859 7.9961 8.0039-0.003906 4.4219-3.5898 8-8.0078 7.9961s-7.9961-3.5859-7.9922-8.0039c0-4.4219 3.5859-8 8.0039-7.9961zm-104 153.66c0.015625-18.02 5.2305-35.652 15.012-50.785 9.7812-15.137 23.719-27.129 40.145-34.543 15.281-6.125 35.68-24.258 48.844-34.18 13.316 10.066 33.445 27.953 48.844 34.18 17.375 7.9219 31.945 20.918 41.789 37.281 9.8438 16.363 14.504 35.32 13.367 54.383h-208zm-8 22.336h224c4.418 0 8 3.582 8 8s-3.582 8-8 8h-224c-4.418 0-8-3.582-8-8s3.582-8 8-8z"/>
  <path d="m480 336h-80c-4.418 0-8 3.582-8 8s3.582 8 8 8h80c4.418 0 8-3.582 8-8s-3.582-8-8-8z"/>
  <path d="m400.01 312c1.2383 0 2.4609-0.28906 3.5703-0.84375l64-32c3.9531-1.9766 5.5547-6.7812 3.5781-10.734s-6.7812-5.5547-10.734-3.5781l-64 32c-3.2422 1.7109-4.918 5.3984-4.0742 8.9688 0.84375 3.5664 3.9961 6.1133 7.6602 6.1875z"/>
  <path d="m460.42 423.16c3.9531 1.9766 8.7578 0.375 10.734-3.5781s0.375-8.7578-3.5781-10.734l-64-32c-3.9531-1.9766-8.7578-0.375-10.734 3.5781s-0.375 8.7578 3.5781 10.734z"/>
  <path d="m24 344c0 2.1211 0.84375 4.1562 2.3438 5.6562s3.5352 2.3438 5.6562 2.3438h80c4.418 0 8-3.582 8-8s-3.582-8-8-8h-80c-4.418 0-8 3.582-8 8z"/>
  <path d="m108.42 311.16c3.9531 1.9766 8.7578 0.375 10.734-3.5781s0.375-8.7578-3.5781-10.734l-64-32c-3.9531-1.9766-8.7578-0.375-10.734 3.5781s-0.375 8.7578 3.5781 10.734z"/>
  <path d="m108.42 376.84-64 32c-3.9531 1.9766-5.5547 6.7812-3.5781 10.734s6.7812 5.5547 10.734 3.5781l64-32c3.9531-1.9766 5.5547-6.7812 3.5781-10.734s-6.7812-5.5547-10.734-3.5781z"/>
 </g>
</svg>
