<?xml version="1.0" encoding="UTF-8"?>
<svg width="512pt" height="512pt" version="1.1" viewBox="0 0 512 512" xmlns="http://www.w3.org/2000/svg">
 <g fill="#5f5545">
  <path d="m467.2 286.89v-233.56c0-22.355-18.199-40.535-40.535-40.535l-341.33 0.003906c-22.355 0-40.535 18.176-40.535 40.535v244.14l-42.262 148.01c-0.25781 0.78906-0.38281 1.6016-0.40625 2.4531v0.019531 0.042969 10.668c0 22.355 18.199 40.535 40.535 40.535h426.67c22.355 0 40.535-18.176 40.535-40.535v-10.668-0.019531-0.019531c-0.019532-0.8125-0.12891-1.5781-0.36328-2.3047zm-405.33-233.56c0-12.93 10.516-23.465 23.465-23.465h341.33c12.93 0 23.465 10.539 23.465 23.465v234.67c0 0.72656 0.10547 1.4297 0.27734 2.1328h-388.54zm-2.0898 253.87h395.18l35.266 132.27h-468.25zm433.02 151.47c0 12.93-10.516 23.465-23.465 23.465h-426.67c-12.93 0-23.465-10.539-23.465-23.465v-2.1328h473.6z"/>
  <path d="m416 55.465h-320c-4.7148 0-8.5352 3.8203-8.5352 8.5352v192c0 4.7148 3.8398 8.5352 8.5352 8.5352h320c4.7148 0 8.5352-3.8203 8.5352-8.5352v-192c0-4.7148-3.8203-8.5352-8.5352-8.5352zm-8.5352 192h-302.93v-174.93h302.93z"/>
  <path d="m261.68 42.988c0 3.1328-2.543 5.6719-5.6758 5.6719s-5.6758-2.5391-5.6758-5.6719c0-3.1367 2.543-5.6758 5.6758-5.6758s5.6758 2.5391 5.6758 5.6758"/>
  <path d="m145.34 343.64h221.33c4.7148 0 8.5352-3.8203 8.5352-8.5352 0-4.7148-3.8398-8.5352-8.5352-8.5352l-221.33 0.003906c-4.7148 0-8.5352 3.8203-8.5352 8.5352 0.003906 4.7148 3.8203 8.5312 8.5352 8.5312z"/>
  <path d="m366.68 402.13h-221.33c-4.7148 0-8.5352 3.8203-8.5352 8.5352 0 4.7148 3.8398 8.5352 8.5352 8.5352h221.33c4.7148 0 8.5352-3.8203 8.5352-8.5352 0-4.7148-3.8398-8.5352-8.5352-8.5352z"/>
  <path d="m405.33 364.35h-298.66c-4.7148 0-8.5352 3.8203-8.5352 8.5352 0 4.7148 3.8398 8.5352 8.5352 8.5352h298.67c4.7148 0 8.5352-3.8203 8.5352-8.5352-0.003906-4.7148-3.8242-8.5352-8.5391-8.5352z"/>
 </g>
</svg>
