<?xml version="1.0" encoding="UTF-8" standalone="no"?>
<!-- Uploaded to: SVG Repo, www.svgrepo.com, Generator: SVG Repo Mixer Tools -->

<svg
   fill="#000000"
   width="800px"
   height="800px"
   viewBox="0 0 24 24"
   xml:space="preserve"
   version="1.1"
   id="svg1059"
   sodipodi:docname="TailwindCSS.svg"
   inkscape:version="1.2.2 (732a01da63, 2022-12-09)"
   xmlns:inkscape="http://www.inkscape.org/namespaces/inkscape"
   xmlns:sodipodi="http://sodipodi.sourceforge.net/DTD/sodipodi-0.dtd"
   xmlns="http://www.w3.org/2000/svg"
   xmlns:svg="http://www.w3.org/2000/svg"><defs
     id="defs1063" /><sodipodi:namedview
     id="namedview1061"
     pagecolor="#ffffff"
     bordercolor="#111111"
     borderopacity="1"
     inkscape:showpageshadow="0"
     inkscape:pageopacity="0"
     inkscape:pagecheckerboard="1"
     inkscape:deskcolor="#d1d1d1"
     showgrid="false"
     inkscape:zoom="0.98125"
     inkscape:cx="399.49045"
     inkscape:cy="400"
     inkscape:window-width="1920"
     inkscape:window-height="1001"
     inkscape:window-x="-9"
     inkscape:window-y="-9"
     inkscape:window-maximized="1"
     inkscape:current-layer="svg1059" /><path
     fill-rule="evenodd"
     clip-rule="evenodd"
     d="m 12.04586,3.7460637 c -3.1929257,0 -5.1874567,1.9906499 -5.9859874,5.9734522 1.1971975,-1.99065 2.594327,-2.7373314 4.1901914,-2.2400445 0.911067,0.2839492 1.562342,1.1087545 2.281858,2.0206969 1.174451,1.4858507 2.53327,3.2060727 5.499925,3.2060727 3.192926,0 5.187457,-1.990649 5.985987,-5.9734512 C 22.820637,8.7234399 21.424705,9.4701213 19.827643,8.9728343 18.916576,8.688885 18.265301,7.8640799 17.544588,6.9521368 16.371334,5.4647834 15.013713,3.7460637 12.04586,3.7460637 Z M 6.0598726,12.706241 c -3.1929256,0 -5.18745652,1.990652 -5.98598725,5.973452 1.19719745,-1.992151 2.59432695,-2.73733 4.19019105,-2.240043 0.9110673,0.283949 1.5623427,1.108753 2.2830556,2.020697 1.1732535,1.485852 2.5320731,3.206073 5.499925,3.206073 3.192925,0 5.187457,-1.990648 5.985988,-5.973452 -1.197198,1.99065 -2.594328,2.73733 -4.190191,2.240044 -0.911068,-0.283949 -1.562343,-1.108754 -2.281859,-2.020698 -1.175648,-1.485849 -2.5344674,-3.206073 -5.5011224,-3.206073 z"
     id="path1057"
     style="fill:#c4b9a0;fill-opacity:1;stroke-width:1.34113" /></svg>
