<svg width="1302" height="1301" viewBox="0 0 1302 1301" fill="none" xmlns="http://www.w3.org/2000/svg">
<path d="M1293.93 554.2C1271.68 410.267 1201.96 277.893 1095.87 178.107C989.768 78.3253 853.36 16.8533 708.333 3.46663C541.226 -11.3254 374.866 39.0453 244.026 144.053C113.188 249.059 27.9995 400.573 6.27954 566.92C-15.4445 733.28 27.9676 901.587 127.446 1036.67C226.92 1171.76 374.766 1263.17 540.06 1291.79C576.721 1297.9 613.825 1300.97 650.992 1300.98C744.82 1301.14 837.565 1280.9 922.792 1241.65C935.766 1235.35 950.432 1233.44 964.589 1236.18L1142.26 1277.18C1179.96 1285.86 1219.45 1274.1 1246.25 1246.2C1273.05 1218.3 1283.23 1178.38 1273.06 1141.05L1229.53 981.053H1229.52C1225.82 965.537 1227.91 949.204 1235.39 935.121C1292.99 816.985 1313.4 684.161 1293.92 554.188L1293.93 554.2ZM651 284.333C668.682 284.333 685.64 291.359 698.14 303.86C710.64 316.361 717.666 333.319 717.666 351C717.666 368.681 710.64 385.64 698.14 398.14C685.639 410.64 668.681 417.667 651 417.667C633.318 417.667 616.36 410.641 603.86 398.14C591.36 385.639 584.333 368.681 584.333 351C584.333 333.319 591.359 316.36 603.86 303.86C616.36 291.36 633.318 284.333 651 284.333ZM751 1001H551C533.136 1001 516.63 991.469 507.697 976C498.765 960.531 498.765 941.469 507.697 926C516.629 910.531 533.134 901 551 901H601V598.2C586.098 592.867 574.604 580.799 569.989 565.659C565.38 550.523 568.197 534.091 577.588 521.356C586.979 508.616 601.839 501.069 617.667 501.001H651C664.26 501.001 676.979 506.267 686.355 515.647C695.735 525.022 701 537.74 701 551.001V901.001H751C768.864 901.001 785.369 910.532 794.303 926.001C803.235 941.471 803.235 960.532 794.303 976.001C785.37 991.471 768.865 1001 751 1001Z" fill="#D9CFBD"/>
</svg>
