<svg width="1376" height="1402" viewBox="0 0 1376 1402" fill="none" xmlns="http://www.w3.org/2000/svg">
<path d="M1374.4 641.8C1361.6 448.2 1265.6 267.4 1113.6 147.4C961.603 27.4 763.2 -22.2 571.2 9.79995C228.8 68.9973 -22.4 385.8 1.60001 734.6C12.7979 902.6 83.1987 1057.8 201.6 1176.2C171.199 1221 144.001 1249.8 72.0014 1307.4C57.6 1318.6 51.1987 1336.2 56.0014 1353.8C59.1992 1371.4 72.0014 1385.8 88.0014 1390.6C112.001 1398.6 147.199 1401.8 187.199 1401.8C272.001 1401.8 379.199 1382.6 462.399 1339.4C572.8 1377.8 691.199 1387.4 807.999 1366.6C1150.4 1305.8 1398.4 987.409 1374.4 641.808L1374.4 641.8ZM368 813C305.599 813 256 763.401 256 701C256 638.599 305.599 589 368 589C430.401 589 480 638.599 480 701C480 763.401 430.401 813 368 813ZM688 813C625.599 813 576 763.401 576 701C576 638.599 625.599 589 688 589C750.401 589 800 638.599 800 701C800 763.401 750.401 813 688 813ZM1008 813C945.599 813 896 763.401 896 701C896 638.599 945.599 589 1008 589C1070.4 589 1120 638.599 1120 701C1120 763.401 1070.4 813 1008 813Z" fill="#D9CFBD"/>
</svg>
