<?xml version="1.0" encoding="UTF-8"?>
<svg width="512pt" height="512pt" version="1.1" viewBox="0 0 512 512" xmlns="http://www.w3.org/2000/svg">
 <defs>
  <clipPath id="f">
   <path d="m25 25h462v191h-462z"/>
  </clipPath>
  <clipPath id="e">
   <path d="m41.805 213.17 214.2-166.28 214.18 166.28c4.2305 3.2656 10.402 2.7188 13.871-1.2578 3.4805-3.9336 2.8711-9.7891-1.3164-13.035l-220.47-171.15c-3.6562-2.832-8.8984-2.832-12.559 0l-220.47 171.14c-4.1875 3.25-4.7891 9.1016-1.332 13.035 3.4922 3.9844 9.6719 4.5273 13.902 1.2656"/>
  </clipPath>
  <clipPath id="d">
   <path d="m197 288h120v149h-120z"/>
  </clipPath>
  <clipPath id="c">
   <path d="m217.14 426.55v-118.7h79.129v118.7c0 5.4844 4.4492 9.9141 9.9141 9.9141 5.4531 0 9.9062-4.4219 9.9062-9.9141v-128.6c0-2.6094-1.0586-5.1602-2.8984-6.9922-1.8281-1.8594-4.3984-2.8867-7.0039-2.8867l-98.949-0.003906c-2.6094 0-5.1758 1.0273-7.0156 2.8867-1.832 1.832-2.8711 4.3828-2.8711 6.9922v128.6c0 5.4844 4.418 9.9141 9.8828 9.9141 5.4648 0.003907 9.9062-4.4219 9.9062-9.9062"/>
  </clipPath>
  <clipPath id="b">
   <path d="m78 215h357v271h-357z"/>
  </clipPath>
  <clipPath id="a">
   <path d="m78.605 224.61v252.01c0 2.4414 1.0508 4.8672 2.9023 6.6016 1.832 1.7305 4.4023 2.7305 7.0156 2.7305h336.37c2.6094 0 5.1602-1 6.9922-2.7305 1.8516-1.7305 2.9141-4.1562 2.9141-6.6016l0.003906-252.01c0-5.1289-4.4453-9.2891-9.9141-9.2891-5.457 0-9.8711 4.1562-9.8711 9.2891v242.65h-316.6v-242.65c0-5.1289-4.418-9.2891-9.8906-9.2891-5.4844-0.003906-9.9219 4.1562-9.9219 9.2891"/>
  </clipPath>
 </defs>
 <path d="m41.805 213.17 214.2-166.28 214.18 166.28c4.2305 3.2656 10.402 2.7188 13.871-1.2578 3.4805-3.9336 2.8711-9.7891-1.3164-13.035l-220.47-171.15c-3.6562-2.832-8.8984-2.832-12.559 0l-220.47 171.14c-4.1875 3.25-4.7891 9.1016-1.332 13.035 3.4922 3.9844 9.6719 4.5273 13.902 1.2656" fill="#5f5545" fill-rule="evenodd"/>
 <g clip-path="url(#f)">
  <g clip-path="url(#e)">
   <path d="m-78.383-72.168h668.73v385.22h-668.73z" fill="#5f5545" fill-rule="evenodd"/>
  </g>
 </g>
 <path d="m217.14 426.55v-118.7h79.129v118.7c0 5.4844 4.4492 9.9141 9.9141 9.9141 5.4531 0 9.9062-4.4219 9.9062-9.9141v-128.6c0-2.6094-1.0586-5.1602-2.8984-6.9922-1.8281-1.8594-4.3984-2.8867-7.0039-2.8867l-98.949-0.003906c-2.6094 0-5.1758 1.0273-7.0156 2.8867-1.832 1.832-2.8711 4.3828-2.8711 6.9922v128.6c0 5.4844 4.418 9.9141 9.8828 9.9141 5.4648 0.003907 9.9062-4.4219 9.9062-9.9062" fill="#5f5545" fill-rule="evenodd"/>
 <g clip-path="url(#d)">
  <g clip-path="url(#c)">
   <path d="m92.988 183.7h327.46v357.11h-327.46z" fill="#5f5545" fill-rule="evenodd"/>
  </g>
 </g>
 <path d="m78.605 224.61v252.01c0 2.4414 1.0508 4.8672 2.9023 6.6016 1.832 1.7305 4.4023 2.7305 7.0156 2.7305h336.37c2.6094 0 5.1602-1 6.9922-2.7305 1.8516-1.7305 2.9141-4.1562 2.9141-6.6016l0.003906-252.01c0-5.1289-4.4453-9.2891-9.9141-9.2891-5.457 0-9.8711 4.1562-9.8711 9.2891v242.65h-316.6v-242.65c0-5.1289-4.418-9.2891-9.8906-9.2891-5.4844-0.003906-9.9219 4.1562-9.9219 9.2891" fill="#5f5545" fill-rule="evenodd"/>
 <g clip-path="url(#b)">
  <g clip-path="url(#a)">
   <path d="m-25.758 110.95h564.91v479.36h-564.91z" fill="#5f5545" fill-rule="evenodd"/>
  </g>
 </g>
</svg>
