<svg width="1088" height="1019" viewBox="0 0 1088 1019" fill="none" xmlns="http://www.w3.org/2000/svg">
<path d="M915.814 1018C1010.88 1018 1088 940.875 1088 845.813V435.12C1088 379.12 1060.81 326.808 1015.19 294.493L643.188 32.0667C583.688 -9.99601 504.122 -9.99601 444.628 32.0667L72.8149 294.627C27.1896 326.815 0.00292969 379.252 0.00292969 435.133V845.88C0.00292969 940.88 77.1283 1018.01 172.19 1018.01L915.814 1018ZM336 746.627C336 666.815 400.938 602 480.627 602H607.376C687.188 602 752.003 666.937 752.003 746.627V842.001C752.003 868.564 730.566 890.001 704.003 890.001C677.44 890.001 656.003 868.564 656.003 842.001V746.627C656.003 719.752 634.254 698.001 607.378 698.001H480.628C453.754 698.001 432.003 719.751 432.003 746.627V842.001C432.003 868.564 410.566 890.001 384.003 890.001C357.44 890.001 336.003 868.564 336.003 842.001L336 746.627Z" fill="#D9CFBD"/>
</svg>
