<svg width="1434" height="1368" viewBox="0 0 1434 1368" fill="none" xmlns="http://www.w3.org/2000/svg">
<path d="M1265.67 834H165C137.667 834 115 811.333 115 784V117.333C115 53.3333 167.667 0.666626 231.667 0.666626H1199C1263 0.666626 1315.67 53.3333 1315.67 117.333V784C1315.67 811.333 1293 834 1265.67 834ZM215 734H1215.67V117.333C1215.67 108 1208.33 100.667 1199 100.667H231.667C222.333 100.667 215 108 215 117.333V734Z" fill="#D9CFBD"/>
<path d="M1430.33 1222L1314.33 771.333C1308.33 749.333 1289 734 1265.67 734H168.334C145.667 734 125.667 749.333 119.667 771.333L3.66692 1222C-4.99975 1256.67 2.33359 1292.67 24.3336 1321.33C47.0003 1350.67 81.0003 1367.33 119 1367.33H1315C1352.33 1367.33 1387 1350.67 1409.67 1321.33C1431.67 1292.67 1439 1256.67 1430.33 1222ZM782.334 1200.67H649C621.667 1200.67 599 1178 599 1150.67C599 1123.33 621.667 1100.67 649 1100.67H782.334C809.667 1100.67 832.334 1123.33 832.334 1150.67C832.334 1178 809.667 1200.67 782.334 1200.67Z" fill="#D9CFBD"/>
</svg>
