<?xml version="1.0" encoding="UTF-8"?>
<svg width="512pt" height="512pt" version="1.1" viewBox="0 0 512 512" xmlns="http://www.w3.org/2000/svg">
 <g fill="#5f5545">
  <path d="m436.73 219.65c0-3.0703-2.0469-6.1445-5.1211-7.168-57.344-18.945-90.113 10.238-99.328 19.969h-15.871c0.51172-2.0469 1.0234-4.6094 1.5352-6.1445 22.016-27.648 20.48-45.566-4.6094-72.191l-4.0977-4.0977c0-0.51172-0.51172-0.51172-1.0234-0.51172l-11.258-11.266c-16.383-15.871-26.113-36.863-28.16-59.391 0-2.5586-1.5352-4.6094-3.5859-5.6328 0.51172-2.0469 1.0234-4.0977 1.0234-6.6562v-3.0703c0-8.7031-3.5859-14.848-9.2148-16.895 3.0703-8.7031 6.6562-25.602-3.5859-42.496-1.5352-2.5625-4.0938-4.0977-6.6523-4.0977h-7.6797c-2.5586 0-5.1211 1.5352-6.6562 3.5859-10.238 16.895-6.6562 33.793-3.5859 42.496-5.6328 2.0469-9.2148 8.1914-9.2148 16.895v3.582c0 2.0469 0.51172 4.6094 0.51172 6.1445-2.0469 1.0234-3.5859 3.5859-4.0977 6.1445-1.5352 22.527-11.777 44.031-28.16 59.391l-12.289 11.777c-0.51172 0.51172-0.51172 1.0234-1.0234 1.0234l-2.5586 3.5859c-3.5859 3.5859-6.1445 7.168-8.7031 10.238-9.2148-18.434-30.207-30.207-49.664-30.207-3.5859 0-6.6562 2.5586-7.6797 6.1445l-5.1211 26.113c-0.51172 2.0469 0 4.6094 1.5352 6.6562 1.5352 2.0469 3.5859 3.0703 6.1445 3.0703 17.922 0 38.91 14.848 38.91 33.793 0 15.871-11.266 29.184-25.602 32.77-6.1445-4.6094-14.848-5.6328-21.504-1.5352-7.168 4.0977-10.754 12.289-9.2148 20.48 0.51172 2.0469 1.0234 4.0977 2.0469 6.1445l4.6094 7.6797c-14.332 12.285-23.035 31.227-23.035 52.219v10.238c0 37.375 27.648 68.609 63.488 74.238-9.7266 18.945-19.969 35.84-26.113 46.078 0 0 0 0.51172-0.51172 0.51172-0.51172 1.0234-0.51172 2.0469-0.51172 3.0703v0.51172c0 1.0234 0.51172 2.5586 1.0234 3.5859v0.51172s0 0.51172 0.51172 0.51172l31.742 41.473c1.5352 2.0469 3.5859 3.0703 6.1445 3.0703h184.83c2.5586 0 4.6094-1.0234 6.1445-3.0703l31.742-41.473s0.51172-0.51172 0.51172-0.51172v-0.51172c0.51172-1.0234 1.0234-2.0469 1.0234-3.5859v-0.51172c0-1.0234 0-2.0469-0.51172-3.0703 0 0 0-0.51172-0.51172-0.51172-11.777-19.457-36.352-62.465-50.688-98.305v-1.0234c0-62.465 66.559-121.34 106.5-121.86 2.0469 0 4.0977-1.0234 5.6328-2.5586 1.5352-1.5352 2.0469-3.5859 2.0469-5.6328zm-246.78 90.625v-9.2148h104.96c0.51172 0 1.0234 0 1.5352-0.51172v9.7266zm-16.898-132.1c3.0703 0 5.1211-2.5586 5.1211-5.1211 0-0.51172 0-1.0234-0.51172-2.0469 1.5352-2.0469 3.5859-4.0977 5.6328-6.1445l1.5352-1.5352h115.71l1.5352 1.5352c2.0469 2.0469 4.0977 4.0977 5.6328 6.1445 0 0.51172-0.51172 1.0234-0.51172 2.0469 0 3.0703 2.5586 5.1211 5.1211 5.1211h0.51172c4.0977 6.6562 5.6328 12.289 4.0977 17.922h-148.48c-1.5391-5.6328 0-11.266 4.6055-17.922zm122.88 107.52c-0.51172 0-1.0234-0.51172-1.5352-0.51172h-104.96c-0.51172-17.922-1.5352-38.91-4.6094-54.785h115.71c-3.0703 16.387-4.0938 37.379-4.6055 55.297zm11.262-70.656h-128.51c-1.0234-1.0234-1.5352-2.0469-2.0469-3.0703h133.12c-1.0273 1.0234-2.0508 2.0469-2.5625 3.0703zm-71.68-151.55v-2.0469h14.848v2.0469 3.0703 2.0469h-14.848v-2.0469zm18.434 23.551c1.0234 5.6328 2.0469 11.266 3.5859 16.383h-30.207c1.5352-5.6328 3.0703-10.754 3.5859-16.383zm-11.266-69.633c3.0703 8.7031 1.5352 16.895 0 22.016-1.5352-5.1172-3.0703-13.309 0-22.016zm-21.504 101.89h40.961c0.51172 0 1.0234 0 1.5352-0.51172 5.1211 10.754 11.777 20.48 20.48 28.672h-83.457c8.7031-8.1914 15.359-17.922 20.48-28.16zm-103.42 41.984 2.0469-10.754c15.359 2.5586 31.23 15.359 32.258 31.23-8.1953-10.75-21.508-17.918-34.305-20.477zm48.125 62.461c0.51172 1.0234 1.0234 1.5352 2.0469 2.5586 2.0469 7.168 3.5859 16.895 4.6094 27.137h-22.527-5.1211c9.7305-7.1641 17.41-17.406 20.992-29.695zm-58.367 30.211c0.51172-0.51172 1.0234-0.51172 2.0469-0.51172 1.0234 0 2.0469 0.51172 2.5586 1.0234 0.51172 0.51172 0.51172 0.51172 1.0234 1.0234l5.6328 10.238-6.6562 4.0977-5.6328-10.238c0-0.51172-0.51172-0.51172-0.51172-1.0234-0.50781-2.0508 0.003906-3.5859 1.5391-4.6094zm-17.406 84.992v-10.238c0-15.871 6.1445-30.719 16.895-40.961h0.51172c0.51172 0 1.5352 0.51172 2.0469 0.51172 1.5352 0 2.5586-0.51172 4.0977-1.0234l19.969-11.777c1.5352-1.0234 3.0703-2.5586 3.5859-4.6094 4.0977-1.0234 8.7031-1.5352 12.801-1.5352h23.551c1.0234 16.895 1.0234 33.793 0.51172 44.031v5.1211c0 20.48-18.434 60.93-36.352 94.719 2.5586-4.6094 5.1211-9.7266 7.6797-14.848-30.723-2.5586-55.297-28.16-55.297-59.391zm241.15 157.7h-177.15l-8.1914-10.238c0.51172-0.51172 1.0234-1.5352 1.0234-2.5586 0-3.0703-2.5586-5.1211-5.1211-5.1211h-1.5352l-6.1445-7.6797 217.09-0.003907-6.1445 7.6797h-1.5352c-3.0703 0-5.1211 2.5586-5.1211 5.1211 0 1.0234 0.51172 2.0469 1.0234 2.5586zm-199.17-41.473c15.359-26.625 51.711-92.16 56.832-129.54h107.52c5.1211 36.863 41.473 102.4 56.832 129.54zm180.22-128c-0.51172-3.5859-1.0234-6.6562-1.0234-9.2148v-5.1211c0-14.336 0-41.984 2.5586-64.512h22.016c2.5586 0 4.6094-1.0234 6.1445-3.0703 1.0234-1.5352 24.574-31.23 72.703-20.992-38.398 9.7266-87.039 51.711-102.4 102.91z"/>
  <path d="m192.51 178.18h4.6094c3.0703 0 5.1211-2.5586 5.1211-5.1211 0-3.0703-2.5586-5.1211-5.1211-5.1211l-4.6094 0.003906c-3.0703 0-5.1211 2.5586-5.1211 5.1211-0.51172 3.0703 2.0508 5.1172 5.1211 5.1172z"/>
  <path d="m288.77 178.18h4.6094c3.0703 0 5.1211-2.5586 5.1211-5.1211 0-3.0703-2.5586-5.1211-5.1211-5.1211h-4.6094c-3.0703 0-5.1211 2.5586-5.1211 5.1211 0 3.0742 2.0469 5.1211 5.1211 5.1211z"/>
  <path d="m216.57 178.18h4.6094c3.0703 0 5.1211-2.5586 5.1211-5.1211 0-3.0703-2.5586-5.1211-5.1211-5.1211h-4.6094c-3.0703 0-5.1211 2.5586-5.1211 5.1211-0.50781 3.0742 2.0508 5.1211 5.1211 5.1211z"/>
  <path d="m264.7 178.18h4.6094c3.0703 0 5.1211-2.5586 5.1211-5.1211 0-3.0703-2.5586-5.1211-5.1211-5.1211h-4.6094c-3.0703 0-5.1211 2.5586-5.1211 5.1211-0.51172 3.0742 2.0508 5.1211 5.1211 5.1211z"/>
  <path d="m240.64 178.18h4.6094c3.0703 0 5.1211-2.5586 5.1211-5.1211 0-3.0703-2.5586-5.1211-5.1211-5.1211h-4.6094c-3.0703 0-5.1211 2.5586-5.1211 5.1211-0.51172 3.0742 2.0469 5.1211 5.1211 5.1211z"/>
  <path d="m245.25 478.21h-5.1211c-3.0703 0-5.1211 2.5586-5.1211 5.1211 0 2.5586 2.5586 5.1211 5.1211 5.1211h5.1211c3.0703 0 5.1211-2.5586 5.1211-5.1211 0-2.5586-2.0469-5.1211-5.1211-5.1211z"/>
  <path d="m193.54 478.21h-5.1211c-3.0703 0-5.1211 2.5586-5.1211 5.1211 0 2.5586 2.5586 5.1211 5.1211 5.1211h5.1211c3.0703 0 5.1211-2.5586 5.1211-5.1211 0-2.5586-2.0469-5.1211-5.1211-5.1211z"/>
  <path d="m219.65 478.21h-5.1211c-3.0703 0-5.1211 2.5586-5.1211 5.1211 0 2.5586 2.5586 5.1211 5.1211 5.1211h5.1211c3.0703 0 5.1211-2.5586 5.1211-5.1211 0-2.5586-2.5625-5.1211-5.1211-5.1211z"/>
  <path d="m167.94 478.21h-5.1211c-3.0703 0-5.1211 2.5586-5.1211 5.1211 0 2.5586 2.5586 5.1211 5.1211 5.1211h5.1211c3.0703 0 5.1211-2.5586 5.1211-5.1211-0.003906-2.5586-2.5625-5.1211-5.1211-5.1211z"/>
  <path d="m271.36 478.21h-5.1211c-3.0703 0-5.1211 2.5586-5.1211 5.1211 0 2.5586 2.5586 5.1211 5.1211 5.1211h5.1211c3.0703 0 5.1211-2.5586 5.1211-5.1211 0-2.5586-2.5586-5.1211-5.1211-5.1211z"/>
  <path d="m323.07 478.21h-5.1211c-3.0703 0-5.1211 2.5586-5.1211 5.1211 0 2.5586 2.5586 5.1211 5.1211 5.1211h5.1211c3.0703 0 5.1211-2.5586 5.1211-5.1211 0-2.5586-2.5586-5.1211-5.1211-5.1211z"/>
  <path d="m296.96 478.21h-5.1211c-3.0703 0-5.1211 2.5586-5.1211 5.1211 0 2.5586 2.5586 5.1211 5.1211 5.1211h5.1211c3.0703 0 5.1211-2.5586 5.1211-5.1211-0.003906-2.5586-2.0508-5.1211-5.1211-5.1211z"/>
  <path d="m199.68 384c-2.5586-0.51172-5.6328 1.5352-6.1445 4.0977l-0.51172 2.5586c-0.51172 2.5586 1.5352 5.6328 4.0977 6.1445h1.0234c2.5586 0 4.6094-1.5352 5.1211-4.0977l0.51172-2.5586c0.51172-2.5586-1.0234-5.6328-4.0977-6.1445z"/>
  <path d="m196.61 401.92c-2.5586-0.51172-5.6328 1.5352-6.1445 4.0977l-0.51172 2.5586c-0.51172 2.5586 1.5352 5.6328 4.0977 6.1445h1.0234c2.5586 0 4.6094-1.5352 5.1211-4.0977l0.51172-2.5586c0.50781-3.0742-1.5391-5.6328-4.0977-6.1445z"/>
  <path d="m202.75 366.59c-2.5586-0.51172-5.6328 1.5352-6.1445 4.0977l-0.51172 2.5586c-0.51172 2.5586 1.5352 5.6328 4.0977 6.1445h1.0234c2.5586 0 4.6094-1.5352 5.1211-4.0977l0.51172-2.5586c1.0195-3.0742-1.0273-5.6328-4.0977-6.1445z"/>
  <path d="m209.41 330.75c-2.5586-0.51172-5.6328 1.5352-6.1445 4.0977l-0.51172 2.5586c-0.51172 2.5586 1.5352 5.6328 4.0977 6.1445h1.0234c2.5586 0 4.6094-1.5352 5.1211-4.0977l0.51172-2.5586c0.51172-3.0742-1.0234-5.6328-4.0977-6.1445z"/>
  <path d="m206.34 348.67c-2.5586-0.51172-5.6328 1.5352-6.1445 4.0977l-0.51172 2.5586c-0.51172 2.5586 1.5352 5.6328 4.0977 6.1445h1.0234c2.5586 0 4.6094-1.5352 5.1211-4.0977l0.51172-2.5586c0.51172-3.0742-1.5391-5.6328-4.0977-6.1445z"/>
  <path d="m190.98 437.76c-3.0703 0-5.1211 2.5586-5.1211 5.1211v2.5586c0 3.0703 2.5586 5.1211 5.1211 5.1211 3.0703 0 5.1211-2.5586 5.1211-5.1211v-2.5586c0-3.0742-2.0508-5.1211-5.1211-5.1211z"/>
  <path d="m193.54 419.84c-2.5586-0.51172-5.6328 1.5352-6.1445 4.0977l-0.51172 2.5586c-0.51172 2.5586 1.5352 5.6328 4.0977 6.1445h1.0234c2.5586 0 4.6094-1.5352 5.1211-4.0977l0.51172-2.5586c0.51172-3.0742-1.5352-5.6328-4.0977-6.1445z"/>
  <path d="m285.18 378.88c2.5586-0.51172 4.6094-3.0703 4.0977-6.1445l-0.51172-2.5586c-0.51172-3.0703-3.0703-4.6094-6.1445-4.0977-2.5586 0.51172-4.6094 3.0703-4.0977 6.1445l0.51172 2.5586c0.51172 2.5586 2.5586 4.0977 5.1211 4.0977 0 0.51172 0.51172 0.51172 1.0234 0z"/>
  <path d="m281.6 361.47c2.5586-0.51172 4.6094-3.0703 4.0977-6.1445l-0.51172-2.5586c-0.51562-3.0742-3.0742-4.6094-5.6367-4.0977-2.5586 0.51172-4.6094 3.0703-4.0977 6.1445l0.51172 2.5586c0.51172 2.5586 2.5586 4.0977 5.1211 4.0977h0.51562z"/>
  <path d="m292.35 419.84c-2.5586 0.51172-4.6094 3.0703-4.0977 6.1445l0.51172 2.5586c0.51172 2.5586 2.5586 4.0977 5.1211 4.0977h1.0234c2.5586-0.51172 4.6094-3.0703 4.0977-6.1445l-0.51172-2.5586c-0.51172-2.5625-3.5859-4.6094-6.1445-4.0977z"/>
  <path d="m291.33 414.72c2.5586-0.51172 4.6094-3.0703 4.0977-6.1445l-0.51562-2.5586c-0.51172-3.0703-3.0703-4.6094-6.1445-4.0977-2.5586 0.51172-4.6094 3.0703-4.0977 6.1445l0.51172 2.5586c0.51172 2.5586 2.5586 4.0977 5.1211 4.0977h1.0273z"/>
  <path d="m288.26 396.8c2.5586-0.51172 4.6094-3.0703 4.0977-6.1445l-0.51172-2.5586c-0.51172-3.0703-3.0703-4.6094-6.1445-4.0977-2.5586 0.51172-4.6094 3.0703-4.0977 6.1445l0.51172 2.5586c0.51172 2.5586 2.5586 4.0977 5.1211 4.0977h1.0234z"/>
  <path d="m278.53 343.55c2.5586-0.51172 4.6094-3.0703 4.0977-6.1445l-0.51172-2.5586c-0.51172-3.0703-3.0703-4.6094-6.1445-4.0977-2.5586 0.51172-4.6094 3.0703-4.0977 6.1445l0.51172 2.5586c0.51172 2.5586 2.5586 4.0977 5.1211 4.0977h1.0234z"/>
  <path d="m294.4 437.76c-3.0703 0-5.1211 2.5586-5.1211 5.1211l0.003906 2.5586c0 3.0703 2.5586 5.1211 5.1211 5.1211 3.0703 0 5.1211-2.5586 5.1211-5.1211v-2.5586c-0.003907-3.0742-2.0508-5.1211-5.125-5.1211z"/>
  <path d="m242.69 403.46c-3.0703 0-5.1211 2.5586-5.1211 5.1211v2.5586c0 3.0703 2.5586 5.1211 5.1211 5.1211 3.0703 0 5.1211-2.5586 5.1211-5.1211v-2.5586c0-3.0742-2.0469-5.1211-5.1211-5.1211z"/>
  <path d="m242.69 385.54c-3.0703 0-5.1211 2.5586-5.1211 5.1211v2.5586c0 3.0703 2.5586 5.1211 5.1211 5.1211 3.0703 0 5.1211-2.5586 5.1211-5.1211v-2.5586c0-3.0703-2.0469-5.1211-5.1211-5.1211z"/>
  <path d="m242.69 421.38c-3.0703 0-5.1211 2.5586-5.1211 5.1211v2.5586c0 3.0703 2.5586 5.1211 5.1211 5.1211 3.0703 0 5.1211-2.5586 5.1211-5.1211v-2.5586c0-2.5586-2.0469-5.1211-5.1211-5.1211z"/>
  <path d="m242.69 349.18c-3.0703 0-5.1211 2.5586-5.1211 5.1211v2.5586c0 3.0703 2.5586 5.1211 5.1211 5.1211 3.0703 0 5.1211-2.5586 5.1211-5.1211v-2.5586c0-3.0742-2.0469-5.1211-5.1211-5.1211z"/>
  <path d="m242.69 330.75c-3.0703 0-5.1211 2.5586-5.1211 5.1211v2.5586c0 3.0703 2.5586 5.1211 5.1211 5.1211 3.0703 0 5.1211-2.5586 5.1211-5.1211v-2.5586c0-2.5625-2.0469-5.1211-5.1211-5.1211z"/>
  <path d="m242.69 367.11c-3.0703 0-5.1211 2.5586-5.1211 5.1211v2.5586c0 3.0703 2.5586 5.1211 5.1211 5.1211 3.0703 0 5.1211-2.5586 5.1211-5.1211v-2.5586c0-2.5625-2.0469-5.1211-5.1211-5.1211z"/>
  <path d="m242.69 439.81c-3.0703 0-5.1211 2.5586-5.1211 5.1211v2.5586c0 3.0703 2.5586 5.1211 5.1211 5.1211 3.0703 0 5.1211-2.5586 5.1211-5.1211v-2.5586c0-3.0742-2.0469-5.1211-5.1211-5.1211z"/>
 </g>
</svg>
