<?xml version="1.0" encoding="UTF-8"?>
<svg width="1200pt" height="1200pt" version="1.1" viewBox="0 0 1200 1200" xmlns="http://www.w3.org/2000/svg">
 <path fill="#D9CFBD" d="m1033.7 166.36c16.453 17.016 15.75 36.141 16.172 48.656 1.3125 36.609-10.594 108.14-97.172 194.76-0.375 0.32812-111.98 104.02-111.98 104.02l152.9 362.9c16.547 39.188 15.141 83.578-3.8906 121.6l-15.234 30.469c-8.8125 14.719-19.5 21.047-33.891 21.234-12.375 0-23.906-6.0469-30.984-16.219l-246.24-355.4-174.71 162.28-0.9375 134.44c-0.046876 9.9375-4.0312 19.406-11.062 26.391l-37.5 37.5c-8.5312 8.5781-20.719 12.516-32.672 10.5-12-1.9219-22.312-9.6094-27.656-20.438l-68.766-139.22-139.18-68.719c-10.875-5.3906-18.516-15.703-20.438-27.656-1.9688-12 1.9219-24.141 10.547-32.766l37.453-37.453c6.9844-7.0312 16.5-10.969 26.391-11.062l134.48-0.9375 162.24-174.71-355.4-246.24c-10.172-7.0312-16.219-18.562-16.219-30.938 0.1875-14.391 6.5156-25.078 21.234-33.891l30.469-15.234c38.062-18.984 82.453-20.438 121.64-3.9375l362.9 152.95s103.69-111.66 104.02-111.98c86.625-86.625 158.16-98.484 194.72-97.172 12.609 0.46875 31.641-0.23438 48.75 16.266z" fill-rule="evenodd"/>
</svg>
