<?xml version="1.0" encoding="UTF-8"?>
<svg width="512pt" height="512pt" version="1.1" viewBox="0 0 512 512" xmlns="http://www.w3.org/2000/svg">
 <g fill="#b4aa94">
  <path d="m433.66 274.95h-356.35c-10.754 0-19.457-8.7031-19.457-19.457 0-10.754 8.7031-19.457 19.457-19.457h356.86c10.754 0 19.457 8.7031 19.457 19.457 0 10.75-8.7031 19.457-19.969 19.457z"/>
  <path d="m433.66 121.34h-356.35c-10.754 0-19.457-8.7031-19.457-19.457 0-10.754 8.7031-19.457 19.457-19.457h356.86c10.754 0 19.457 8.7031 19.457 19.457 0 10.754-8.7031 19.457-19.969 19.457z"/>
  <path d="m433.66 428.54h-356.35c-10.754 0-19.457-8.7031-19.457-19.457 0-10.754 8.7031-19.457 19.457-19.457h356.86c10.754 0 19.457 8.7031 19.457 19.457 0 10.754-8.7031 19.457-19.969 19.457z"/>
 </g>
</svg>
