<?xml version="1.0" encoding="UTF-8"?>
<svg width="512pt" height="512pt" version="1.1" viewBox="0 0 512 512" xmlns="http://www.w3.org/2000/svg">
 <g fill="#c3b9a3">
  <path d="m474.76 171.44h-89.984v-89.988z"/>
  <path d="m362.28 97.746-21.723-21.723h28.703l0.003907 32.582c-1.5508-3.8789-3.8789-7.7578-6.9844-10.859z"/>
  <path d="m479.42 186.96v290.13c0 12.414-10.086 23.273-23.273 23.273h-274.62c-13.188 0-23.273-10.086-23.273-23.273v-26.375h172.22c21.723 0 38.789-17.066 38.789-38.789l0.77734-224.97z"/>
  <path d="m140.41 147.39c24.824 0 44.992-20.168 44.992-44.992 0-24.824-20.168-44.992-44.992-44.992-24.824 0-44.992 20.168-44.992 44.992-0.003906 24.82 20.164 44.992 44.992 44.992z"/>
  <path d="m250.57 121.79c-3.8789 0-7.7578-3.1016-7.7578-7.7578v-102.4h-187.73c-12.414 0-23.273 10.086-23.273 23.273v377.79c0 13.188 10.086 23.273 23.273 23.273h275.39c12.414 0 23.273-10.086 23.273-23.273v-290.91zm-110.16-79.902c33.359 0 60.508 27.152 60.508 60.508 0 33.359-27.152 60.508-60.508 60.508-33.359 0-60.508-27.152-60.508-60.508-0.003906-33.355 27.148-60.508 60.508-60.508zm157.48 338.23h-210.23c-3.8789 0-7.7578-3.1016-7.7578-7.7578s3.8789-7.7578 7.7578-7.7578h210.23c3.8789 0 7.7578 3.1016 7.7578 7.7578 0 3.8789-3.8789 7.7578-7.7578 7.7578zm0-54.305h-210.23c-3.8789 0-7.7578-3.1016-7.7578-7.7578 0-3.8789 3.8789-7.7578 7.7578-7.7578h210.23c3.8789 0 7.7578 3.8789 7.7578 7.7578s-3.8789 7.7578-7.7578 7.7578zm0-54.301h-210.23c-3.8789 0-7.7578-3.1016-7.7578-7.7578 0-3.8789 3.8789-7.7578 7.7578-7.7578h210.23c3.8789 0 7.7578 3.8789 7.7578 7.7578 0 3.8789-3.8789 7.7578-7.7578 7.7578zm0-54.305h-210.23c-3.8789 0-7.7578-3.8789-7.7578-7.7578 0-4.6562 3.8789-7.7578 7.7578-7.7578h210.23c3.8789 0 7.7578 3.1016 7.7578 7.7578 0 3.8789-3.8789 7.7578-7.7578 7.7578zm-39.562-200.92v90.762l90.762 0.003907z"/>
 </g>
</svg>
