<?xml version="1.0" encoding="UTF-8"?>
<svg width="512pt" height="512pt" version="1.1" viewBox="0 0 512 512" xmlns="http://www.w3.org/2000/svg">
 <g fill="#5f5545">
  <path d="m123.18 366.39c-4.0977 0-8.1875-1.5625-11.312-4.6875l-94.383-94.387c-3.0039-3-4.6875-7.0664-4.6875-11.312 0-4.2422 1.6836-8.3125 4.6875-11.312l94.387-94.383c6.2461-6.2539 16.383-6.2422 22.621 0 6.25 6.25 6.25 16.379 0 22.621l-83.074 83.074 83.074 83.078c6.25 6.25 6.25 16.379 0 22.621-3.1211 3.125-7.2188 4.6875-11.312 4.6875z"/>
  <path d="m388.82 366.38c-4.0938 0-8.1875-1.5625-11.312-4.6875-6.25-6.25-6.25-16.371 0-22.621l83.07-83.074-83.074-83.078c-6.25-6.25-6.25-16.379 0-22.621 6.2461-6.2539 16.383-6.2422 22.621 0l94.387 94.391c6.25 6.25 6.25 16.379 0 22.621l-94.383 94.383c-3.1211 3.125-7.2188 4.6875-11.309 4.6875z"/>
  <path d="m175.86 410.6c-2.7188 0-5.4727-0.6875-7.9922-2.1484-7.6484-4.418-10.266-14.207-5.8438-21.855l160.26-277.21c4.4258-7.6523 14.215-10.266 21.859-5.8477 7.6484 4.418 10.266 14.207 5.8438 21.855l-160.27 277.21c-2.9648 5.1289-8.3398 7.9922-13.863 7.9922z"/>
 </g>
</svg>
