<svg width="134" height="172" viewBox="0 0 134 172" fill="none" xmlns="http://www.w3.org/2000/svg">
<path d="M49.14 101.22C49.14 86.4867 48.7933 73.92 48.1 63.52C47.4067 53.12 46.28 42.2867 44.72 31.02C49.92 24.78 55.4667 18.8 61.36 13.08C67.4267 7.36 72.8867 3.2 77.74 0.599988C78.4333 3.37333 78.78 7.18666 78.78 12.04C78.78 20.36 77.8267 32.1467 75.92 47.4C74.1867 62.48 72.8 71.06 71.76 73.14L54.86 111.36L49.14 109.54V101.22ZM111.8 70.28C119.253 70.28 124.713 72.4467 128.18 76.78C131.82 80.94 133.64 87.7867 133.64 97.32C133.64 106.333 132.253 115.693 129.48 125.4C126.707 135.107 122.893 142.993 118.04 149.06C111.8 156.86 102.787 162.493 91 165.96C79.3867 169.427 66.6467 171.16 52.78 171.16C50.3533 171.16 47.9267 170.987 45.5 170.64C35.7933 166.827 27.7333 162.407 21.32 157.38C14.9067 152.18 8.66667 145.853 2.6 138.4C1.04 136.667 0.173333 135.28 0 134.24C22.7067 133.547 41.9467 132.68 57.72 131.64C64.48 110.493 69.8533 96.6267 73.84 90.04C77.6533 83.9733 83.0267 79.2067 89.96 75.74C97.0667 72.1 104.347 70.28 111.8 70.28ZM67.34 130.86C77.22 129.993 86.2333 128.607 94.38 126.7C102.7 124.793 109.2 122.713 113.88 120.46C118.56 118.207 120.9 116.3 120.9 114.74C120.9 113.527 119.687 112.487 117.26 111.62C114.833 110.753 111.453 110.32 107.12 110.32C100.88 110.32 94.2933 111.447 87.36 113.7C80.4267 115.78 74.7933 118.553 70.46 122.02L67.34 130.86Z" fill="#D9CFBD"/>
</svg>
