<svg width="410" height="512" viewBox="0 0 410 512" fill="none" xmlns="http://www.w3.org/2000/svg">
<g clip-path="url(#clip0_126_11)">
<path d="M0 335.28C0 335.28 69.1468 301.691 138.473 301.691L190.751 140.312C192.71 132.507 198.426 127.201 204.872 127.201C211.328 127.201 217.034 132.507 218.993 140.312L271.27 301.691C353.389 301.691 409.744 335.28 409.744 335.28C409.744 335.28 292.307 16.1499 292.077 15.5103C288.7 6.0762 283.013 0 275.338 0H134.416C126.741 0 121.284 6.0762 117.686 15.5103C117.427 16.1399 0 335.28 0 335.28ZM127.171 430.111C101.886 407.305 94.5009 359.375 105.034 324.657C123.303 346.543 148.607 353.479 174.831 357.397C215.295 363.433 255.051 361.174 292.647 342.926C296.944 340.837 300.922 338.059 305.619 335.24C309.147 345.334 310.066 355.538 308.837 365.911C305.839 391.186 293.087 410.713 272.819 425.514C264.715 431.43 256.14 436.717 247.765 442.304C222.041 459.453 215.086 479.57 224.75 508.832C224.979 509.542 225.179 510.261 225.699 512C212.567 506.194 202.973 497.749 195.668 486.646C187.953 474.933 184.275 461.971 184.085 447.94C183.985 441.114 183.985 434.229 183.056 427.503C180.787 411.093 172.982 403.748 158.281 403.328C143.191 402.898 131.248 412.102 128.09 426.593C127.84 427.713 127.49 428.802 127.141 430.101L127.171 430.111Z" fill="#C4B9A3"/>
</g>
<defs>
<clipPath id="clip0_126_11">
<rect width="409.744" height="512" fill="white"/>
</clipPath>
</defs>
</svg>
