<svg width="512" height="307" viewBox="0 0 512 307" fill="none" xmlns="http://www.w3.org/2000/svg">
<path d="M145.516 111.831C145.516 118.063 146.19 123.116 147.369 126.821C148.716 130.526 150.4 134.568 152.758 138.947C153.6 140.295 153.937 141.642 153.937 142.821C153.937 144.505 152.927 146.189 150.737 147.874L140.127 154.947C138.611 155.958 137.095 156.463 135.748 156.463C134.063 156.463 132.379 155.621 130.695 154.105C128.337 151.579 126.316 148.884 124.632 146.189C122.948 143.326 121.263 140.126 119.411 136.253C106.274 151.747 89.7686 159.495 69.8949 159.495C55.7476 159.495 44.4633 155.453 36.2107 147.368C27.9581 139.284 23.7476 128.505 23.7476 115.031C23.7476 100.716 28.8002 89.0946 39.0739 80.3367C49.3476 71.5789 62.9897 67.1999 80.337 67.1999C86.0633 67.1999 91.9581 67.7052 98.1897 68.5473C104.421 69.3894 110.821 70.7368 117.558 72.2525V59.9578C117.558 47.1578 114.863 38.2315 109.642 33.0104C104.253 27.7894 95.1581 25.2631 82.1897 25.2631C76.2949 25.2631 70.2318 25.9367 64.0002 27.4525C57.7686 28.9683 51.7055 30.821 45.8107 33.1789C43.116 34.3578 41.0949 35.0315 39.916 35.3683C38.737 35.7052 37.8949 35.8736 37.2212 35.8736C34.8633 35.8736 33.6844 34.1894 33.6844 30.6525V22.3999C33.6844 19.7052 34.0212 17.6841 34.8633 16.5052C35.7055 15.3262 37.2212 14.1473 39.5791 12.9683C45.4739 9.93675 52.5476 7.41043 60.8002 5.38938C69.0528 3.19991 77.8107 2.18938 87.0739 2.18938C107.116 2.18938 121.769 6.73675 131.2 15.8315C140.463 24.9262 145.179 38.7367 145.179 57.2631V111.831H145.516ZM77.137 137.431C82.6949 137.431 88.4212 136.421 94.4844 134.4C100.548 132.379 105.937 128.674 110.484 123.621C113.179 120.421 115.2 116.884 116.211 112.842C117.221 108.8 117.895 103.916 117.895 98.1894V91.1157C113.011 89.9367 107.79 88.9262 102.4 88.2525C97.0107 87.5789 91.7897 87.242 86.5686 87.242C75.2844 87.242 67.0318 89.4315 61.4739 93.9789C55.916 98.5262 53.2212 104.926 53.2212 113.347C53.2212 121.263 55.2423 127.158 59.4528 131.2C63.4949 135.41 69.3897 137.431 77.137 137.431ZM212.379 155.621C209.348 155.621 207.327 155.116 205.979 153.937C204.632 152.926 203.453 150.568 202.442 147.368L162.863 17.1789C161.853 13.8104 161.348 11.621 161.348 10.442C161.348 7.74728 162.695 6.23149 165.39 6.23149H181.895C185.095 6.23149 187.284 6.73675 188.463 7.9157C189.811 8.92622 190.821 11.2841 191.832 14.4841L220.127 125.979L246.4 14.4841C247.242 11.1157 248.253 8.92622 249.6 7.9157C250.948 6.90517 253.305 6.23149 256.337 6.23149H269.811C273.011 6.23149 275.2 6.73675 276.548 7.9157C277.895 8.92622 279.074 11.2841 279.748 14.4841L306.358 127.326L335.495 14.4841C336.505 11.1157 337.684 8.92622 338.863 7.9157C340.211 6.90517 342.4 6.23149 345.432 6.23149H361.095C363.79 6.23149 365.305 7.57885 365.305 10.442C365.305 11.2841 365.137 12.1262 364.969 13.1367C364.8 14.1473 364.463 15.4946 363.79 17.3473L323.2 147.537C322.19 150.905 321.011 153.095 319.663 154.105C318.316 155.116 316.126 155.789 313.263 155.789H298.779C295.579 155.789 293.39 155.284 292.042 154.105C290.695 152.926 289.516 150.737 288.842 147.368L262.737 38.7367L236.8 147.2C235.958 150.568 234.948 152.758 233.6 153.937C232.253 155.116 229.895 155.621 226.863 155.621H212.379ZM428.8 160.168C420.042 160.168 411.284 159.158 402.863 157.137C394.442 155.116 387.874 152.926 383.495 150.4C380.8 148.884 378.948 147.2 378.274 145.684C377.6 144.168 377.263 142.484 377.263 140.968V132.379C377.263 128.842 378.611 127.158 381.137 127.158C382.148 127.158 383.158 127.326 384.169 127.663C385.179 128 386.695 128.674 388.379 129.347C394.105 131.874 400.337 133.895 406.905 135.242C413.642 136.589 420.211 137.263 426.948 137.263C437.558 137.263 445.811 135.41 451.537 131.705C457.263 128 460.295 122.61 460.295 115.705C460.295 110.989 458.779 107.116 455.748 103.916C452.716 100.716 446.99 97.8525 438.737 95.1578L414.316 87.5789C402.021 83.7052 392.926 77.9789 387.369 70.3999C381.811 62.9894 378.948 54.7367 378.948 45.9789C378.948 38.9052 380.463 32.6736 383.495 27.2841C386.526 21.8946 390.569 17.1789 395.621 13.4736C400.674 9.59991 406.4 6.73675 413.137 4.7157C419.874 2.69464 426.948 1.85254 434.358 1.85254C438.063 1.85254 441.937 2.02096 445.642 2.52622C449.516 3.03149 453.053 3.70517 456.59 4.37885C459.958 5.22096 463.158 6.06306 466.19 7.07359C469.221 8.08412 471.579 9.09464 473.263 10.1052C475.621 11.4525 477.305 12.7999 478.316 14.3157C479.326 15.6631 479.832 17.5157 479.832 19.8736V27.7894C479.832 31.3262 478.484 33.1789 475.958 33.1789C474.611 33.1789 472.421 32.5052 469.558 31.1578C459.958 26.7789 449.179 24.5894 437.221 24.5894C427.621 24.5894 420.042 26.1052 414.821 29.3052C409.6 32.5052 406.905 37.3894 406.905 44.2946C406.905 49.0104 408.59 53.0525 411.958 56.2525C415.327 59.4525 421.558 62.6525 430.484 65.5157L454.4 73.0946C466.526 76.9683 475.284 82.3578 480.505 89.2631C485.726 96.1683 488.253 104.084 488.253 112.842C488.253 120.084 486.737 126.653 483.874 132.379C480.842 138.105 476.8 143.158 471.579 147.2C466.358 151.41 460.126 154.442 452.884 156.631C445.305 158.989 437.39 160.168 428.8 160.168Z" fill="#C4B9A3"/>
<path fill-rule="evenodd" clip-rule="evenodd" d="M460.632 242.021C405.221 282.947 324.716 304.673 255.495 304.673C158.484 304.673 71.0738 268.8 5.05272 209.179C-0.168329 204.463 4.54746 198.063 10.779 201.768C82.1896 243.2 170.274 268.295 261.39 268.295C322.863 268.295 390.4 255.495 452.548 229.221C461.811 225.01 469.726 235.284 460.632 242.021Z" fill="#C4B9A3"/>
<path fill-rule="evenodd" clip-rule="evenodd" d="M483.705 215.747C476.632 206.652 436.884 211.368 418.863 213.558C413.474 214.231 412.632 209.516 417.516 205.979C449.179 183.747 501.221 190.147 507.284 197.558C513.348 205.137 505.6 257.179 475.958 282.105C471.411 285.979 467.032 283.958 469.053 278.905C475.79 262.231 490.779 224.674 483.705 215.747Z" fill="#C4B9A3"/>
</svg>
