<svg width="449" height="512" viewBox="0 0 449 512" fill="none" xmlns="http://www.w3.org/2000/svg">
<g clip-path="url(#clip0_97_16)">
<path fill-rule="evenodd" clip-rule="evenodd" d="M333.354 40.2428C329.481 37.9107 325.522 35.7256 321.474 33.6874C317.335 31.6539 313.076 29.6701 308.753 27.9495C307.388 27.3736 306.045 26.8476 304.665 26.3144C300.89 24.8924 297.086 23.3495 293.19 22.2047C265.324 13.079 235.883 9.75768 206.684 12.4449C177.485 15.1322 149.146 23.7713 123.414 37.83C97.6811 51.8886 75.1005 71.0685 57.0643 94.1877C39.0281 117.307 25.9178 143.875 18.5424 172.255C11.1669 200.634 9.68258 230.224 14.1802 259.199C18.6778 288.174 29.0632 315.921 44.6946 340.73C60.326 365.538 80.8732 386.883 105.069 403.447C129.265 420.011 156.596 431.443 185.38 437.04V498.534C313.929 479.145 427.76 377.109 436.242 243.142C441.355 162.536 401.155 80.2438 333.354 40.2428Z" fill="#C4B9A3"/>
<path d="M173.805 512V446.39C119.867 433.535 72.526 401.323 40.7698 355.868C9.01367 310.413 -4.9475 254.879 1.53796 199.811C8.02341 144.742 34.5029 93.9728 75.9502 57.1392C117.398 20.3055 170.928 -0.027833 226.377 0.00031279C250.301 -0.0396524 274.076 3.7504 296.802 11.2269C299.838 12.1085 302.993 13.3104 306.044 14.4764L308.696 15.4789C310.509 16.1899 311.875 16.7235 313.268 17.3136C317.093 18.8352 321.396 20.7691 326.572 23.3145C330.942 25.5138 335.174 27.8482 339.269 30.3177C409.659 71.8474 453.257 157.665 447.789 243.888C439.378 376.569 329.763 488.473 187.093 509.988L173.805 512ZM226.668 23.1435H226.391C175.877 23.1272 127.169 41.9323 89.771 75.8889C52.3728 109.845 28.9667 156.517 24.1213 206.799C19.276 257.08 33.3374 307.363 63.5632 347.836C93.789 388.309 138.01 416.069 187.598 425.699L196.947 427.526V484.798C322.361 460.211 417.237 360.173 424.696 242.424C429.623 164.669 390.569 87.4258 327.474 50.2261L327.374 50.1619C323.776 48.0289 320.036 45.931 316.268 44.0326C311.739 41.8143 307.97 40.1012 304.486 38.7218C303.064 38.1175 301.892 37.6625 300.697 37.2004L297.803 36.105C295.059 35.0599 292.457 34.0644 289.947 33.332C269.53 26.5905 248.169 23.1511 226.668 23.1435Z" fill="#5F5646"/>
<path fill-rule="evenodd" clip-rule="evenodd" d="M183.489 117.366C186.721 116.967 190.001 117.37 193.04 118.538C196.079 119.706 198.783 121.603 200.915 124.064C204.22 127.672 206.924 131.786 208.928 136.25C216.038 151.892 220.235 174.353 211.454 186.945C202.212 184.583 193.552 180.348 186.013 174.503C178.474 168.658 172.217 161.327 167.627 152.965C165.304 148.383 163.999 143.353 163.801 138.219C163.951 132.933 166.041 127.887 169.672 124.041C173.302 120.195 178.22 117.819 183.489 117.366Z" fill="#5F5646"/>
<path fill-rule="evenodd" clip-rule="evenodd" d="M131.871 170.783C133.054 170.687 134.243 170.687 135.426 170.783C140.902 170.878 146.301 172.088 151.295 174.338C167.093 181.107 184.711 197.652 188.124 212.327C174.572 221.357 150.164 220.617 134.358 213.849C129.651 211.562 125.164 208.846 120.956 205.736C117.756 203.322 115.381 199.978 114.155 196.161C112.928 192.345 112.911 188.243 114.106 184.417C115.301 180.59 117.649 177.227 120.829 174.786C124.009 172.346 127.865 170.948 131.871 170.783Z" fill="#5F5646"/>
<path fill-rule="evenodd" clip-rule="evenodd" d="M151.258 283.661C146.304 286.029 140.879 287.244 135.389 287.216C131.151 287.712 126.866 286.84 123.158 284.727C119.451 282.614 116.516 279.372 114.783 275.473C113.049 271.574 112.608 267.222 113.523 263.054C114.437 258.887 116.66 255.12 119.867 252.306C123.734 248.708 128.298 245.943 133.277 244.18C139.082 241.71 145.313 240.394 151.621 240.304C161.895 240.119 179.534 237.83 188.088 243.525C185.827 258.172 167.057 276.893 151.258 283.661Z" fill="#5F5646"/>
<path fill-rule="evenodd" clip-rule="evenodd" d="M216.379 319.994C214.226 324.699 211.632 329.189 208.63 333.403C197.339 348.078 171.167 337.776 172.29 318.579C172.391 313.557 173.605 308.62 175.845 304.125C182.614 288.319 201.028 268.908 216.833 265.524C225.849 279.068 223.155 305.326 216.379 319.994Z" fill="#5F5646"/>
<path fill-rule="evenodd" clip-rule="evenodd" d="M244.03 135.873C246.19 131.167 248.792 126.677 251.802 122.463C253.936 119.931 256.661 117.962 259.736 116.732C262.811 115.502 266.142 115.048 269.434 115.41C274.867 115.753 279.958 118.185 283.639 122.195C287.32 126.205 289.308 131.482 289.187 136.924C289.084 142.064 287.871 147.122 285.632 151.749C281.693 160.099 276.031 167.519 269.02 173.524C262.008 179.529 253.804 183.981 244.949 186.589C234.817 174.196 237.262 151.671 244.03 135.873Z" fill="#5F5646"/>
<path fill-rule="evenodd" clip-rule="evenodd" d="M253.915 333.411C250.684 329.737 248.064 325.566 246.157 321.06C239.389 305.262 239.622 281.614 248.645 269.192C264.443 272.584 281.003 289.386 287.75 305.191C289.989 309.814 291.202 314.865 291.305 320.001C292.436 336.93 266.322 346.955 253.915 333.411Z" fill="#5F5646"/>
<path fill-rule="evenodd" clip-rule="evenodd" d="M323.051 286.136C317.575 286.04 312.174 284.831 307.181 282.581C291.382 275.812 274.062 259.984 270.677 245.309C279.359 239.621 295.385 239.003 305.773 239.195C312.081 239.293 318.312 240.614 324.117 243.084C328.816 245.24 333.302 247.835 337.513 250.835C353.311 262.154 343.372 287.259 323.051 286.136Z" fill="#5F5646"/>
</g>
<defs>
<clipPath id="clip0_97_16">
<rect width="448.259" height="512" fill="white"/>
</clipPath>
</defs>
</svg>
