<svg width="512" height="192" viewBox="0 0 512 192" fill="none" xmlns="http://www.w3.org/2000/svg">
<path d="M38.6367 57.8306C37.6396 57.8306 37.3904 57.3321 37.8889 56.5843L43.1236 49.854C43.6221 49.1062 44.8685 48.6077 45.8655 48.6077H134.855C135.852 48.6077 136.101 49.3555 135.603 50.1033L131.365 56.5843C130.867 57.3321 129.62 58.0799 128.872 58.0799L38.6367 57.8306Z" fill="#C4B9A3"/>
<path d="M0.997079 80.7635C0 80.7635 -0.24927 80.265 0.24927 79.5172L5.48393 72.7869C5.98247 72.0391 7.22882 71.5405 8.2259 71.5405H121.893C122.89 71.5405 123.389 72.2883 123.139 73.0361L121.145 79.0186C120.896 80.0157 119.899 80.5142 118.902 80.5142L0.997079 80.7635Z" fill="#C4B9A3"/>
<path d="M61.3203 103.696C60.3232 103.696 60.074 102.949 60.5725 102.201L64.0623 95.969C64.5608 95.2212 65.5579 94.4734 66.555 94.4734H116.409C117.406 94.4734 117.905 95.2212 117.905 96.2183L117.406 102.201C117.406 103.198 116.409 103.946 115.661 103.946L61.3203 103.696Z" fill="#C4B9A3"/>
<path d="M320.062 53.3438C304.358 57.3322 293.64 60.3234 278.185 64.3117C274.446 65.3088 274.197 65.5581 270.956 61.819C267.217 57.5814 264.475 54.8395 259.24 52.3468C243.536 44.6194 228.331 46.8628 214.123 56.0858C197.172 67.0537 188.448 83.2562 188.697 103.447C188.946 123.389 202.656 139.84 222.349 142.582C239.299 144.826 253.507 138.843 264.724 126.131C266.968 123.389 268.962 120.397 271.455 116.908C262.481 116.908 251.264 116.908 223.346 116.908C218.111 116.908 216.865 113.667 218.609 109.43C221.85 101.702 227.832 88.7401 231.322 82.2591C232.07 80.7635 233.815 78.2708 237.554 78.2708C250.267 78.2708 297.129 78.2708 328.288 78.2708C327.79 85.0011 327.79 91.7314 326.793 98.4617C324.051 116.409 317.32 132.861 306.352 147.319C288.405 170.999 264.974 185.706 235.311 189.694C210.882 192.935 188.199 188.199 168.257 173.243C149.811 159.283 139.342 140.838 136.6 117.905C133.359 90.7343 141.336 66.3059 157.788 44.8687C175.486 21.6866 198.917 6.97967 227.583 1.74501C251.015 -2.49258 273.449 0.249386 293.64 13.9592C306.851 22.6837 316.323 34.6486 322.555 49.1063C324.051 51.3497 323.054 52.596 320.062 53.3438Z" fill="#C4B9A3"/>
<path d="M402.571 191.19C379.887 190.691 359.198 184.21 341.749 169.254C327.042 156.541 317.819 140.339 314.828 121.145C310.341 92.9776 318.068 68.0507 335.018 45.8657C353.215 21.9358 375.151 9.47228 404.814 4.23761C430.239 -0.249244 454.169 2.24345 475.856 16.9504C495.548 30.4109 507.762 48.6076 511.003 72.5375C515.24 106.189 505.519 133.609 482.337 157.04C465.885 173.741 445.694 184.21 422.512 188.946C415.782 190.193 409.052 190.442 402.571 191.19ZM461.897 90.4849C461.647 87.2444 461.647 84.7517 461.149 82.259C456.662 57.5813 433.979 43.6222 410.298 49.1062C387.116 54.3408 372.16 69.0477 366.676 92.4791C362.189 111.922 371.661 131.614 389.609 139.591C403.318 145.574 417.028 144.826 430.24 138.095C449.932 127.875 460.65 111.922 461.897 90.4849Z" fill="#C4B9A3"/>
</svg>
