<svg width="464" height="512" viewBox="0 0 464 512" fill="none" xmlns="http://www.w3.org/2000/svg">
<path d="M434.736 252.089C434.736 225.769 413.4 204.433 387.078 204.433C385.386 204.433 383.716 204.524 382.07 204.696L447.526 11.6396H169.358L234.724 204.528C233.765 204.47 232.801 204.433 231.828 204.433C205.508 204.433 184.171 225.769 184.171 252.089C184.171 273.365 198.114 291.375 217.357 297.503C207.193 315.109 194.404 330.965 179.884 344.665C160.14 363.291 137.543 377.414 113.103 386.118C84.006 371.17 70.2645 337.927 82.6639 308.778C84.063 305.487 85.4935 302.151 86.8588 298.829C107.94 293.909 123.647 275.011 123.647 252.431C123.647 226.111 102.311 204.775 75.9899 204.775C49.6699 204.775 28.3326 226.111 28.3326 252.431C28.3326 268.571 36.3638 282.827 48.6386 291.449C36.8433 318.305 19.5042 346.412 14.1023 378.988C7.62852 418.029 14.0814 459.47 47.8471 482.873C126.485 537.375 211.846 449.085 301.847 426.891C334.465 418.847 370.269 420.144 399.006 403.499C420.587 391 434.814 370.287 438.851 347.031C442.84 324.057 437.025 301.184 423.652 282.636C430.569 274.364 434.736 263.715 434.736 252.089Z" fill="#5F5646"/>
<path d="M427.384 345.039C423.878 365.229 411.409 382.865 393.173 393.428C376.173 403.273 355.802 406.212 334.234 409.322C322.68 410.988 310.732 412.712 299.06 415.59C268.199 423.2 238.306 438.048 209.399 452.407C151.548 481.142 101.587 505.955 54.4779 473.306C19.9707 449.39 21.5641 405.14 25.5843 380.892C29.3101 358.427 39.3828 337.738 49.1238 317.729C50.8068 314.27 52.4561 310.874 54.0612 307.508C58.8892 309.437 64.0245 310.753 69.3774 311.352C59.4618 344.076 75.0551 379.657 107.785 396.471L112.264 398.772L117.008 397.084C142.882 387.869 166.724 373.082 187.872 353.13C201.541 340.234 213.295 325.966 222.954 310.721C225.85 311.157 228.812 311.387 231.828 311.387C261.867 311.387 286.742 288.93 290.591 259.925C302.887 259.475 315.948 259.472 328.315 259.921C332.161 288.927 357.038 311.387 387.078 311.387C399.638 311.387 411.289 307.45 420.887 300.763C427.551 314.403 430.038 329.751 427.384 345.039ZM75.9897 216.414C95.8511 216.414 112.008 232.572 112.008 252.432C112.008 259.566 109.915 266.218 106.321 271.82C100.332 281.157 90.1583 287.557 78.4642 288.356C77.646 288.412 76.8219 288.45 75.9897 288.45C71.5644 288.45 67.3242 287.642 63.4041 286.177C55.4742 283.209 48.8665 277.52 44.7101 270.254C41.7014 264.994 39.9717 258.913 39.9717 252.432C39.9717 232.572 56.1295 216.414 75.9897 216.414ZM195.81 252.09C195.81 234.045 209.149 219.062 226.482 216.471C228.227 216.209 230.012 216.072 231.828 216.072C243.374 216.072 253.654 221.542 260.248 230.018C261.886 232.124 263.308 234.409 264.452 236.848C266.625 241.481 267.846 246.644 267.846 252.09C267.846 254.969 267.497 257.769 266.855 260.454C263.345 275.149 250.815 286.379 235.462 287.925C234.267 288.045 233.055 288.108 231.828 288.108C224.637 288.108 217.937 285.981 212.307 282.336C202.391 275.912 195.81 264.758 195.81 252.09ZM346.136 209.261C338.42 216.643 332.682 226.076 329.824 236.683C316.487 236.182 302.344 236.182 289.083 236.683C286.037 225.378 279.719 215.404 271.221 207.828L308.49 132.466L346.136 209.261ZM185.593 23.2799H431.289L373.259 194.432C370.744 195.036 368.29 195.796 365.909 196.71L308.582 79.7669L251.094 196.011C248.609 195.156 246.049 194.467 243.428 193.944L185.593 23.2799ZM423.096 252.09C423.096 255.702 422.556 259.188 421.563 262.479C419.198 270.31 414.235 277.02 407.681 281.608C401.838 285.698 394.736 288.108 387.078 288.108C370.448 288.108 356.419 276.775 352.295 261.427C351.494 258.447 351.06 255.319 351.06 252.09C351.06 247.166 352.055 242.472 353.851 238.195C354.777 235.99 355.931 233.907 357.257 231.949C363.739 222.383 374.678 216.072 387.078 216.072C388.215 216.072 389.337 216.131 390.448 216.235C408.734 217.939 423.096 233.366 423.096 252.09ZM446.375 252.09C446.375 223.14 425.517 198.986 398.045 193.826L463.762 0.0012207H153.125L218.942 194.22C192.423 200.121 172.531 223.819 172.531 252.09C172.531 273.318 183.75 291.965 200.563 302.443C192.476 314.492 182.886 325.83 171.897 336.198C154.467 352.641 135.05 365.11 114.117 373.315C93.0321 360.07 84.1186 335.094 93.3754 313.334L94.1006 311.629C94.5545 310.564 95.0084 309.496 95.4612 308.429C118.62 300.351 135.286 278.309 135.286 252.432C135.286 219.735 108.686 193.135 75.9897 193.135C43.2936 193.135 16.693 219.735 16.693 252.432C16.693 268.935 23.4764 283.88 34.3942 294.641C32.4155 298.858 30.332 303.147 28.1939 307.539C18.212 328.041 6.89852 351.279 2.61989 377.084C-5.878 428.332 7.82966 469.299 41.2172 492.439C61.4778 506.481 82.0515 512.001 102.757 512.001C141.744 512.001 181.182 492.415 219.754 473.255C247.534 459.458 276.26 445.189 304.634 438.191C315.191 435.588 326.055 434.021 337.557 432.362C360.365 429.072 383.95 425.671 404.84 413.572C429.056 399.545 445.632 376.018 450.319 349.022C454.343 325.847 449.501 302.635 437.691 282.95C443.196 273.954 446.375 263.387 446.375 252.09Z" fill="#C4B9A3"/>
</svg>
