<?xml version="1.0" encoding="UTF-8"?>
<svg width="512pt" height="512pt" version="1.1" viewBox="0 0 512 512" xmlns="http://www.w3.org/2000/svg">
 <g fill="#5f5545">
  <path d="m501.34 32h-490.69c-5.875 0-10.656 4.7734-10.656 10.664v341.34c0 5.8906 4.7812 10.664 10.656 10.664h177.03l-12.766 64h-4.2656c-5.875 0-10.656 4.7812-10.656 10.672 0 5.8906 4.7812 10.664 10.656 10.664h170.69c5.875 0 10.656-4.7734 10.656-10.664 0-5.8906-4.7812-10.672-10.656-10.672h-4.2812l-12.781-64h177.06c5.875 0 10.656-4.7734 10.656-10.664v-341.34c0-5.8906-4.7812-10.664-10.656-10.664zm-304.66 426.66 12.75-63.914 93.094-0.023438 12.781 63.938zm293.97-405.33v277.33h-469.31v-277.33zm-234.66 320h-234.66v-21.336h469.31v21.336z"/>
  <path d="m266.66 362.66c0-5.8906-4.7656-10.664-10.656-10.664s-10.656 4.7734-10.656 10.664c0 5.8906 4.7656 10.672 10.656 10.672s10.656-4.7812 10.656-10.672z"/>
  <path d="m53.344 96h319.97 0.03125c5.875 0 10.656-4.7734 10.656-10.664 0-5.8906-4.7812-10.672-10.656-10.672h-320c-5.9062 0-10.688 4.7812-10.688 10.672 0 5.8906 4.7812 10.664 10.688 10.664z"/>
  <path d="m53.344 138.66h170.64 0.015625c5.8906 0 10.656-4.7734 10.656-10.664s-4.7656-10.664-10.656-10.664h-170.66c-5.9062 0-10.688 4.7734-10.688 10.664s4.7812 10.664 10.688 10.664z"/>
  <path d="m53.344 181.34h234.64 0.015625c5.8906 0 10.656-4.7734 10.656-10.664s-4.7656-10.672-10.656-10.672h-234.66c-5.9062 0-10.688 4.7734-10.688 10.664 0 5.8984 4.7812 10.672 10.688 10.672z"/>
  <path d="m53.344 224h149.31c5.9062 0 10.688-4.7734 10.688-10.664 0-5.8906-4.7812-10.664-10.688-10.664l-149.31-0.007813c-5.9062 0-10.688 4.7812-10.688 10.672 0 5.8906 4.7812 10.664 10.688 10.664z"/>
  <path d="m53.344 266.66h277.31v0.007813c5.9062 0 10.688-4.7812 10.688-10.672s-4.7812-10.664-10.688-10.664h-277.31c-5.9062 0-10.688 4.7734-10.688 10.664s4.7812 10.664 10.688 10.664z"/>
  <path d="m53.344 309.34h85.312c5.9062 0 10.688-4.7734 10.688-10.664s-4.7812-10.672-10.688-10.672h-85.312c-5.9062 0-10.688 4.7734-10.688 10.664 0 5.8984 4.7812 10.672 10.688 10.672z"/>
 </g>
</svg>
