<?xml version="1.0" encoding="UTF-8" standalone="no"?>
<svg
   height="1499"
   viewBox=".15 .13 799.7 479.69"
   width="2500"
   version="1.1"
   id="svg42549"
   sodipodi:docname="tailwindcss.svg"
   inkscape:version="1.2.2 (732a01da63, 2022-12-09)"
   xmlns:inkscape="http://www.inkscape.org/namespaces/inkscape"
   xmlns:sodipodi="http://sodipodi.sourceforge.net/DTD/sodipodi-0.dtd"
   xmlns="http://www.w3.org/2000/svg"
   xmlns:svg="http://www.w3.org/2000/svg">
  <defs
     id="defs42553" />
  <sodipodi:namedview
     id="namedview42551"
     pagecolor="#ffffff"
     bordercolor="#111111"
     borderopacity="1"
     inkscape:showpageshadow="0"
     inkscape:pageopacity="0"
     inkscape:pagecheckerboard="1"
     inkscape:deskcolor="#d1d1d1"
     showgrid="false"
     inkscape:zoom="0.524"
     inkscape:cx="1250"
     inkscape:cy="1056.2977"
     inkscape:window-width="1920"
     inkscape:window-height="1001"
     inkscape:window-x="-9"
     inkscape:window-y="-9"
     inkscape:window-maximized="1"
     inkscape:current-layer="svg42549" />
  <path
     d="m400 .13c-106.63 0-173.27 53.3-199.93 159.89 39.99-53.3 86.64-73.28 139.95-59.96 30.42 7.6 52.16 29.67 76.23 54.09 39.2 39.78 84.57 85.82 183.68 85.82 106.62 0 173.27-53.3 199.92-159.9-39.98 53.3-86.63 73.29-139.95 59.97-30.41-7.6-52.15-29.67-76.22-54.09-39.2-39.78-84.58-85.82-183.68-85.82zm-199.93 239.84c-106.62 0-173.27 53.3-199.92 159.9 39.98-53.3 86.63-73.29 139.95-59.96 30.41 7.61 52.15 29.67 76.22 54.08 39.2 39.78 84.58 85.83 183.68 85.83 106.63 0 173.27-53.3 199.93-159.9-39.99 53.3-86.64 73.29-139.95 59.96-30.42-7.59-52.16-29.67-76.23-54.08-39.2-39.78-84.57-85.83-183.68-85.83z"
     fill="#06b6d4"
     id="path42547"
     style="fill:#c4b9a0;fill-opacity:1" />
</svg>
